<?xml version="1.0" standalone="no"?>
<svg xmlns:xlink="http://www.w3.org/1999/xlink" id="wave" style="transform:rotate(0deg); transition: 0.3s" viewBox="0 0 1440 490" version="1.1" xmlns="http://www.w3.org/2000/svg"><defs><linearGradient id="sw-gradient-0" x1="0" x2="0" y1="1" y2="0"><stop stop-color="rgba(86, 114, 87, 1)" offset="0%"/><stop stop-color="rgba(66.851, 91.392, 67.727, 1)" offset="100%"/></linearGradient></defs><path style="transform:translate(0, 0px); opacity:1" fill="url(#sw-gradient-0)" d="M0,245L80,253.2C160,261,320,278,480,253.2C640,229,800,163,960,179.7C1120,196,1280,294,1440,310.3C1600,327,1760,261,1920,245C2080,229,2240,261,2400,253.2C2560,245,2720,196,2880,187.8C3040,180,3200,212,3360,212.3C3520,212,3680,180,3840,212.3C4000,245,4160,343,4320,375.7C4480,408,4640,376,4800,359.3C4960,343,5120,343,5280,285.8C5440,229,5600,114,5760,65.3C5920,16,6080,33,6240,32.7C6400,33,6560,16,6720,16.3C6880,16,7040,33,7200,32.7C7360,33,7520,16,7680,24.5C7840,33,8000,65,8160,114.3C8320,163,8480,229,8640,228.7C8800,229,8960,163,9120,171.5C9280,180,9440,261,9600,261.3C9760,261,9920,180,10080,130.7C10240,82,10400,65,10560,57.2C10720,49,10880,49,11040,98C11200,147,11360,245,11440,294L11520,343L11520,490L11440,490C11360,490,11200,490,11040,490C10880,490,10720,490,10560,490C10400,490,10240,490,10080,490C9920,490,9760,490,9600,490C9440,490,9280,490,9120,490C8960,490,8800,490,8640,490C8480,490,8320,490,8160,490C8000,490,7840,490,7680,490C7520,490,7360,490,7200,490C7040,490,6880,490,6720,490C6560,490,6400,490,6240,490C6080,490,5920,490,5760,490C5600,490,5440,490,5280,490C5120,490,4960,490,4800,490C4640,490,4480,490,4320,490C4160,490,4000,490,3840,490C3680,490,3520,490,3360,490C3200,490,3040,490,2880,490C2720,490,2560,490,2400,490C2240,490,2080,490,1920,490C1760,490,1600,490,1440,490C1280,490,1120,490,960,490C800,490,640,490,480,490C320,490,160,490,80,490L0,490Z"/><defs><linearGradient id="sw-gradient-1" x1="0" x2="0" y1="1" y2="0"><stop stop-color="rgba(86, 114, 87, 1)" offset="0%"/><stop stop-color="rgba(86, 114, 87, 1)" offset="100%"/></linearGradient></defs><path style="transform:translate(0, 50px); opacity:0.9" fill="url(#sw-gradient-1)" d="M0,147L80,155.2C160,163,320,180,480,171.5C640,163,800,131,960,114.3C1120,98,1280,98,1440,155.2C1600,212,1760,327,1920,367.5C2080,408,2240,376,2400,302.2C2560,229,2720,114,2880,81.7C3040,49,3200,98,3360,122.5C3520,147,3680,147,3840,138.8C4000,131,4160,114,4320,147C4480,180,4640,261,4800,245C4960,229,5120,114,5280,57.2C5440,0,5600,0,5760,32.7C5920,65,6080,131,6240,138.8C6400,147,6560,98,6720,81.7C6880,65,7040,82,7200,73.5C7360,65,7520,33,7680,49C7840,65,8000,131,8160,204.2C8320,278,8480,359,8640,400.2C8800,441,8960,441,9120,432.8C9280,425,9440,408,9600,408.3C9760,408,9920,425,10080,359.3C10240,294,10400,147,10560,98C10720,49,10880,98,11040,155.2C11200,212,11360,278,11440,310.3L11520,343L11520,490L11440,490C11360,490,11200,490,11040,490C10880,490,10720,490,10560,490C10400,490,10240,490,10080,490C9920,490,9760,490,9600,490C9440,490,9280,490,9120,490C8960,490,8800,490,8640,490C8480,490,8320,490,8160,490C8000,490,7840,490,7680,490C7520,490,7360,490,7200,490C7040,490,6880,490,6720,490C6560,490,6400,490,6240,490C6080,490,5920,490,5760,490C5600,490,5440,490,5280,490C5120,490,4960,490,4800,490C4640,490,4480,490,4320,490C4160,490,4000,490,3840,490C3680,490,3520,490,3360,490C3200,490,3040,490,2880,490C2720,490,2560,490,2400,490C2240,490,2080,490,1920,490C1760,490,1600,490,1440,490C1280,490,1120,490,960,490C800,490,640,490,480,490C320,490,160,490,80,490L0,490Z"/><defs><linearGradient id="sw-gradient-2" x1="0" x2="0" y1="1" y2="0"><stop stop-color="rgba(86, 114, 87, 1)" offset="0%"/><stop stop-color="rgba(50.635, 73.177, 51.44, 1)" offset="100%"/></linearGradient></defs><path style="transform:translate(0, 100px); opacity:0.8" fill="url(#sw-gradient-2)" d="M0,196L80,204.2C160,212,320,229,480,220.5C640,212,800,180,960,179.7C1120,180,1280,212,1440,228.7C1600,245,1760,245,1920,269.5C2080,294,2240,343,2400,302.2C2560,261,2720,131,2880,122.5C3040,114,3200,229,3360,245C3520,261,3680,180,3840,147C4000,114,4160,131,4320,179.7C4480,229,4640,310,4800,318.5C4960,327,5120,261,5280,228.7C5440,196,5600,196,5760,204.2C5920,212,6080,229,6240,204.2C6400,180,6560,114,6720,98C6880,82,7040,114,7200,122.5C7360,131,7520,114,7680,163.3C7840,212,8000,327,8160,383.8C8320,441,8480,441,8640,367.5C8800,294,8960,147,9120,147C9280,147,9440,294,9600,334.8C9760,376,9920,310,10080,294C10240,278,10400,310,10560,294C10720,278,10880,212,11040,212.3C11200,212,11360,278,11440,310.3L11520,343L11520,490L11440,490C11360,490,11200,490,11040,490C10880,490,10720,490,10560,490C10400,490,10240,490,10080,490C9920,490,9760,490,9600,490C9440,490,9280,490,9120,490C8960,490,8800,490,8640,490C8480,490,8320,490,8160,490C8000,490,7840,490,7680,490C7520,490,7360,490,7200,490C7040,490,6880,490,6720,490C6560,490,6400,490,6240,490C6080,490,5920,490,5760,490C5600,490,5440,490,5280,490C5120,490,4960,490,4800,490C4640,490,4480,490,4320,490C4160,490,4000,490,3840,490C3680,490,3520,490,3360,490C3200,490,3040,490,2880,490C2720,490,2560,490,2400,490C2240,490,2080,490,1920,490C1760,490,1600,490,1440,490C1280,490,1120,490,960,490C800,490,640,490,480,490C320,490,160,490,80,490L0,490Z"/></svg>